<svg xmlns="http://www.w3.org/2000/svg" viewBox="0 0 145 130" aria-hidden="true" role="img"><path d="M82.9 77.7l-21.1 50.4c-.7 1.6-2.8 1.8-3.8.4l-9.8-13.6c-.5-.7-1.3-1.1-2.2-1l-17 1.5c-1.7.2-2.9-1.5-2.2-3.1l19.9-47.5 36.2 12.9z" fill="#33637a"></path><path d="M62.1 77.7l21.1 50.4c.7 1.6 2.8 1.8 3.8.4l9.8-13.6c.5-.7 1.3-1.1 2.2-1l17 1.5c1.7.2 2.9-1.5 2.2-3.1L98.3 64.9 62.1 77.7z" fill="#295163"></path><circle cx="71.5" cy="40.4" r="39.9" fill="#34ba08"></circle><circle cx="71.5" cy="40.4" r="28.7" fill="#6fda44"></circle><path d="M66.6 52.7c-.7 0-1.4-.3-1.9-.8l-9.8-9.8c-1.1-1.1-1.1-2.8 0-3.9s2.8-1.1 3.9 0l7.8 7.8 17.3-17c1.1-1.1 2.8-1.1 3.9 0s1.1 2.8 0 3.9l-19.2 19c-.6.5-1.3.8-2 .8z" fill="#fff"></path></svg>